@startuml
class Rule
class Precondition
class Operation
class ExpectedResult

Rule --> Precondition : contains
Rule --> Operation : contains
Rule --> ExpectedResult : contains

Precondition --> ParticipantRole : contains
Precondition --> TradingInstrument : contains
Precondition --> TradingMarket : contains
Precondition --> TimeCondition : contains
Precondition --> Constraint : contains
Precondition --> Event : contains
Precondition --> OrderStatus : contains

Operation --> TradingAction : contains
Operation --> TradingDirection : contains
Operation --> TradingMethod : contains
Operation --> Quantity : contains
Operation --> PriceType : contains
Operation --> SettlementMethod : contains
Operation --> OperationPart : contains

ExpectedResult --> ResultStatus : contains
ExpectedResult --> OperationResult : contains
@enduml