@startuml
class Rule
class Precondition
class Operation
class ExpectedResult

Rule --> Precondition : contains
Rule --> Operation : contains
Rule --> ExpectedResult : contains

Precondition --> Actor : contains
Precondition --> TradingInstrument : contains
Precondition --> TradingMarket : contains
Precondition --> Time : contains
Precondition --> Event : contains
Precondition --> Constraint : contains

Operation --> Action : contains
Operation --> TradingDirection : contains
Operation --> TradingMethod : contains
Operation --> Quantity : contains
Operation --> Price : contains
Operation --> OperationPart : contains
Operation --> Status : contains
Operation --> Constraint : contains

ExpectedResult --> ResultStatus : contains
ExpectedResult --> Result : contains
ExpectedResult --> Constraint : contains
@enduml